<?xml version="1.0" encoding="UTF-8" standalone="no"?><!DOCTYPE svg PUBLIC "-//W3C//DTD SVG 1.1//EN" "http://www.w3.org/Graphics/SVG/1.1/DTD/svg11.dtd"><svg width="100%" height="100%" viewBox="0 0 15000 7500" version="1.1" xmlns="http://www.w3.org/2000/svg" xmlns:xlink="http://www.w3.org/1999/xlink" xml:space="preserve" xmlns:serif="http://www.serif.com/" style="fill-rule:evenodd;clip-rule:evenodd;stroke-linejoin:round;stroke-miterlimit:2;"><g id="圆角-无空隙" serif:id="圆角 无空隙"><path d="M9268.44,4297.48l1991.89,0l-747.303,1824.92l-1991.89,-0l747.303,-1824.92Z" style="fill:#43c5ff;"/><path d="M10166,2107.57l1991.89,-0l-747.303,1824.92l-1991.89,0l747.304,-1824.92Z" style="fill:#ff953e;"/><path d="M11658.7,4297.48l1991.89,0l-747.303,1824.92l-1991.89,-0l747.304,-1824.92Z" style="fill:#5ed000;"/><path d="M3440.8,2107.57l3737.4,-0l-1325.03,3237.22l-3737.4,0l1325.03,-3237.22Z" style="fill:#ffd82e;"/><path d="M9489.27,2303.54c48.709,-118.561 164.195,-195.968 292.372,-195.968l385.706,-0c-0,-0 -355.73,865.882 -519.275,1263.97c-48.708,118.561 -164.195,195.969 -292.372,195.969c-171.843,-0 -385.706,-0 -385.706,-0c0,-0 355.73,-865.882 519.275,-1263.97Z" style="fill:#111;"/><path d="M9789.16,1573.57c48.709,-118.561 164.195,-195.969 292.372,-195.969c171.844,0 385.706,0 385.706,0c0,0 -33.883,82.476 -69.436,169.016c-48.709,118.561 -164.195,195.969 -292.372,195.969c-171.844,-0 -385.706,-0 -385.706,-0c-0,-0 33.883,-82.476 69.436,-169.016Z" style="fill:#111;"/><path d="M4385.87,2790.37c-13.635,-95.782 -27.272,-173.518 -69.695,-233.206c-42.423,-59.688 -113.634,-106.884 -172.728,-73.572c-59.09,33.316 -49.998,130.484 -13.634,195.726c36.361,65.242 110.605,123.547 160.603,145.754c50.002,22.211 109.092,61.077 95.454,-34.702" style="fill:#111;fill-rule:nonzero;"/><path d="M3725.7,3502.61c39.307,-53.164 63.642,-162.918 24.334,-255.522c-39.307,-92.608 -73.001,-121.759 -86.105,-126.905c-13.103,-5.144 -39.307,15.433 -71.128,78.887c-31.822,63.451 -82.361,219.51 -28.077,288.107c54.284,68.597 121.668,68.597 160.976,15.433" style="fill:#111;fill-rule:nonzero;"/><path d="M4330.07,3726.62c12.247,-110.807 -21.431,-95.377 -105.637,-56.106c-84.203,39.275 -136.255,85.562 -136.255,85.562c-52.052,44.883 -120.946,155.693 -65.831,207.589c55.114,51.899 146.972,4.21 186.777,-22.44c39.806,-26.653 108.7,-103.797 120.946,-214.605" style="fill:#111;fill-rule:nonzero;"/><path d="M3539.01,4292.26c-74.096,-57.32 -253.568,-85.984 -273.328,-70.899c-19.756,15.086 -1.645,40.731 3.293,49.782c4.939,9.052 77.389,140.29 115.26,174.986c37.87,34.699 100.438,75.426 153.126,75.426c52.692,0 121.846,-33.185 95.5,-110.122c-26.342,-76.933 -93.851,-119.173 -93.851,-119.173" style="fill:#111;fill-rule:nonzero;"/><path d="M4215.74,4900.2c67.509,42.238 143.25,1.507 154.774,-73.919c11.525,-75.426 -6.586,-132.749 -6.586,-132.749c-24.698,-82.967 -115.256,-162.92 -133.367,-176.496c-18.115,-13.576 -47.754,-45.257 -74.096,92.022c-26.346,137.273 -8.235,248.905 59.275,291.142" style="fill:#111;fill-rule:nonzero;"/><path d="M12335.5,2644.92l597.568,0l-377.627,922.592l-597.568,-0l377.627,-922.592Z" style="fill:#111;"/><path d="M13553.8,2107.57l597.568,-0c0,-0 -594.927,1455.69 -814.682,1993.4c-48.571,118.845 -164.203,196.504 -292.591,196.504l-385.286,0l894.991,-2189.9Z" style="fill:#ed1818;"/><path d="M11727.6,4129c48.571,-118.845 164.204,-196.504 292.592,-196.504l586.709,0l-149.165,364.984l-798.991,0c-0,0 33.568,-82.136 68.855,-168.48Z" style="fill:#111;"/><path d="M12475,2303.92c48.611,-118.762 164.201,-196.348 292.528,-196.348l807.431,-0l-149.393,364.984l-1019.59,-0c-0,-0 33.659,-82.235 69.024,-168.636Z" style="fill:#ed1818;"/><path d="M12704.8,3202.52l200.859,-0c0,-0 -36.426,88.995 -73.305,179.094c-46.022,112.437 -155.455,185.89 -276.946,185.89l-0,-0l149.392,-364.984Z" style="fill:#111;"/><path d="M12685.4,3202.52l200.859,-0c0,-0 -36.426,88.995 -73.305,179.094c-46.022,112.437 -155.455,185.89 -276.946,185.89c-0,-0 -0,-0 -0,-0l149.392,-364.984Z" style="fill:#111;"/><path d="M12159.2,2107.57l-597.568,-0l-599.784,1459.94l385.706,-0c128.177,-0 243.663,-77.408 292.372,-195.969c163.545,-398.085 519.274,-1263.97 519.274,-1263.97Z" style="fill:#111;"/><path d="M11163.3,2107.57l-385.706,-0c-128.177,-0 -243.664,77.407 -292.372,195.968c-163.545,398.086 -519.275,1263.97 -519.275,1263.97l385.706,-0c128.177,-0 243.663,-77.408 292.372,-195.969c163.545,-398.085 519.275,-1263.97 519.275,-1263.97Z" style="fill:#111;"/><path d="M11698.3,2107.57l-598.246,-0l-149.946,364.984l598.246,-0l149.946,-364.984Z" style="fill:#111;"/><path d="M9170.09,2107.57l-597.568,-0l-598.475,1459.94c-0,-0 213.716,-0 385.53,-0c128.265,-0 243.813,-77.513 292.464,-196.193c163.229,-398.187 518.049,-1263.74 518.049,-1263.74Z" style="fill:#111;"/><path d="M8473.39,1377.6l-385.531,0c-128.265,0 -243.812,77.513 -292.463,196.194c-220.321,537.455 -817.287,1993.71 -817.287,1993.71l597.568,-0l897.713,-2189.91Z" style="fill:#111;"/><path d="M8584.95,2107.57l-486.988,-0c-128.265,-0 -243.813,77.512 -292.464,196.193c-35.442,86.457 -69.193,168.791 -69.193,168.791l699.026,-0l149.619,-364.984Z" style="fill:#111;"/><path d="M8325.08,3202.52l-620.54,-0l-149.619,364.984l408.502,-0c128.266,-0 243.813,-77.513 292.464,-196.193c35.442,-86.458 69.193,-168.791 69.193,-168.791Z" style="fill:#111;"/><path d="M7177.29,2107.57l-385.595,-0c-128.233,-0 -243.758,77.473 -292.43,196.109c-163.347,398.149 -518.506,1263.83 -518.506,1263.83l385.596,-0c128.232,-0 243.757,-77.474 292.43,-196.11c163.347,-398.149 518.505,-1263.83 518.505,-1263.83Z" style="fill:#111;"/><path d="M6181.35,2107.57l-385.409,-0c-128.326,-0 -243.916,77.586 -292.527,196.348c-163.011,398.257 -517.201,1263.59 -517.201,1263.59l597.568,-0l597.569,-1459.94Z" style="fill:#111;"/><path d="M6528.82,3202.52l-801.988,-0l-149.392,364.984l589.828,-0c128.327,-0 243.917,-77.586 292.528,-196.349c35.365,-86.401 69.024,-168.635 69.024,-168.635Z" style="fill:#111;"/><path d="M6129.99,4662.46l-597.568,0l-597.568,1459.94l385.408,-0c128.326,-0 243.917,-77.586 292.528,-196.349c163.01,-398.257 517.2,-1263.59 517.2,-1263.59Z" style="fill:#111;"/><path d="M5432.83,3932.49l-385.408,0c-128.326,0 -243.917,77.586 -292.528,196.349c-220.037,537.58 -815.984,1993.56 -815.984,1993.56l385.408,-0c128.327,-0 243.917,-77.586 292.528,-196.349c220.037,-537.581 815.984,-1993.56 815.984,-1993.56Z" style="fill:#111;"/><path d="M5532.42,4662.46l-0.001,0c-120.009,0 -228.108,72.558 -273.568,183.623c-37.193,90.868 -74.233,181.361 -74.233,181.361l198.41,0l149.392,-364.984Z" style="fill:#111;"/><path d="M5577.44,4662.46l-399.973,0c-128.327,0 -243.917,77.586 -292.528,196.349c-35.365,86.401 -69.024,168.635 -69.024,168.635l612.133,0l149.392,-364.984Z" style="fill:#111;"/><path d="M6448.85,4858.65c48.651,-118.68 164.199,-196.193 292.464,-196.193l385.53,0c-0,0 -354.82,865.557 -518.049,1263.74c-48.651,118.681 -164.199,196.194 -292.464,196.194l-385.53,-0c-0,-0 354.819,-865.557 518.049,-1263.74Z" style="fill:#111;"/><path d="M6748.09,4128.69c48.651,-118.68 164.199,-196.193 292.464,-196.193c171.814,0 385.53,0 385.53,0c0,0 -33.751,82.333 -69.193,168.791c-48.65,118.68 -164.198,196.193 -292.463,196.193l-385.531,0c0,0 33.752,-82.333 69.193,-168.791Z" style="fill:#111;"/><path d="M9117.83,4662.46l-597.568,0l-597.568,1459.94l385.408,-0c128.327,-0 243.917,-77.586 292.528,-196.349c163.011,-398.257 517.2,-1263.59 517.2,-1263.59Z" style="fill:#111;"/><path d="M8121.88,4662.46l-385.408,0c-128.326,0 -243.916,77.586 -292.527,196.349c-163.011,398.256 -517.201,1263.59 -517.201,1263.59l385.409,-0c128.326,-0 243.916,-77.586 292.527,-196.349c163.011,-398.257 517.2,-1263.59 517.2,-1263.59Z" style="fill:#111;"/><path d="M8624.64,4662.46l-552.979,0l-149.392,364.984l552.979,0l149.392,-364.984Z" style="fill:#111;"/><path d="M11111.9,4662.46l-597.568,0l-599.784,1459.94l385.706,-0c128.176,-0 243.663,-77.408 292.371,-195.969c163.545,-398.086 519.275,-1263.97 519.275,-1263.97Z" style="fill:#111;"/><path d="M10116,4662.46l-385.706,0c-128.176,0 -243.663,77.408 -292.371,195.969c-163.546,398.085 -519.275,1263.97 -519.275,1263.97l597.568,-0l599.784,-1459.94Z" style="fill:#111;"/><path d="M10611.8,4662.46l-671.433,0l-149.946,364.984l671.433,0l149.946,-364.984Z" style="fill:#111;"/><path d="M9865.34,5757.41l-199.189,0l-149.946,364.985l0,-0c120.51,-0 229.088,-72.778 274.883,-184.247c37.245,-90.657 74.252,-180.738 74.252,-180.738Z" style="fill:#111;"/><path d="M9790.37,5757.41l-199.189,0l-149.946,364.985l0,-0c120.51,-0 229.088,-72.778 274.883,-184.247c37.245,-90.657 74.252,-180.738 74.252,-180.738Z" style="fill:#111;"/><path d="M2922.53,1573.95c48.611,-118.763 164.201,-196.349 292.527,-196.349c888.161,0 4261.71,0 4261.71,0c-0,0 -32.426,79.221 -66.841,163.302c-48.611,118.762 -164.201,196.348 -292.528,196.348l-4261.71,0c-0,0 32.426,-79.221 66.841,-163.301Z" style="fill:#111;"/><path d="M2710.38,1573.95c48.611,-118.763 164.201,-196.349 292.528,-196.349l285.813,0c0,0 -1495.22,3653.01 -1861.73,4548.44c-48.611,118.763 -164.202,196.349 -292.528,196.349c-135.47,-0 -285.813,-0 -285.813,-0c-0,-0 1495.22,-3653.01 1861.73,-4548.44Z" style="fill:#111;"/><path d="M3689.92,5757.41l-2479.72,0c-128.326,0 -243.916,77.586 -292.527,196.349c-35.365,86.401 -69.024,168.636 -69.024,168.636l2479.72,-0c128.326,-0 243.916,-77.586 292.527,-196.349c35.365,-86.401 69.024,-168.636 69.024,-168.636Z" style="fill:#111;"/></g></svg>