<?xml version="1.0" standalone="no"?>
<!DOCTYPE svg PUBLIC "-//W3C//DTD SVG 1.1//EN" "http://www.w3.org/Graphics/SVG/1.1/DTD/svg11.dtd" >
<svg xmlns="http://www.w3.org/2000/svg">
<metadata>Generated by IcoMoon</metadata>
<defs>
<font id="event-icon" horiz-adv-x="4096">
<font-face units-per-em="4096" ascent="3072" descent="-1024" />
<missing-glyph horiz-adv-x="4096" />
<glyph unicode="&#x20;" horiz-adv-x="2048" d="" />
<glyph unicode="&#xe900;" glyph-name="333" d="M256 2816h1024v-896c0-70.692-57.308-128-128-128h-896v1024zM2816 2816h1024v-1024h-896c-70.692 0-128 57.308-128 128v896zM1536 2816h1024v-896c0-70.692-57.308-128-128-128h-768c-70.692 0-128 57.308-128 128v896zM256 1536h896c70.692 0 128-57.308 128-128v-768c0-70.692-57.308-128-128-128h-896v1024zM2944 1536h896v-1024h-896c-70.692 0-128 57.308-128 128v768c0 70.692 57.308 128 128 128zM1664 1536h768c70.692 0 128-57.308 128-128v-768c0-70.692-57.308-128-128-128h-768c-70.692 0-128 57.308-128 128v768c0 70.692 57.308 128 128 128zM256 256h896c70.692 0 128-57.308 128-128v-896h-1024v1024zM2944 256h896v-1024h-1024v896c0 70.692 57.308 128 128 128zM1664 256h768c70.692 0 128-57.308 128-128v-896h-1024v896c0 70.692 57.308 128 128 128z" />
<glyph unicode="&#xe901;" glyph-name="222" d="M384 2688h1472v-1344c0-70.692-57.308-128-128-128h-1344v1472zM2240 2688h1472v-1472h-1344c-70.692 0-128 57.308-128 128v1344zM384 832h1344c70.692 0 128-57.308 128-128v-1344h-1472v1472zM2368 832h1344v-1472h-1472v1344c0 70.692 57.308 128 128 128z" />
<glyph unicode="&#xe902;" glyph-name="444" d="M256 2816h704v-640c0-35.348-28.652-64-64-64h-640v704zM3136 2816h704v-704h-640c-35.348 0-64 28.652-64 64v640zM2176 2816h704v-640c0-35.348-28.652-64-64-64h-576c-35.348 0-64 28.652-64 64v640zM1216 2816h704v-640c0-35.348-28.652-64-64-64h-576c-35.348 0-64 28.652-64 64v640zM256 1856h640c35.348 0 64-28.652 64-64v-576c0-35.348-28.652-64-64-64h-640v704zM3200 1856h640v-704h-640c-35.348 0-64 28.652-64 64v576c0 35.348 28.652 64 64 64zM2240 1856h576c35.348 0 64-28.652 64-64v-576c0-35.348-28.652-64-64-64h-576c-35.348 0-64 28.652-64 64v576c0 35.348 28.652 64 64 64zM1280 1856h576c35.348 0 64-28.652 64-64v-576c0-35.348-28.652-64-64-64h-576c-35.348 0-64 28.652-64 64v576c0 35.348 28.652 64 64 64zM256 896h640c35.348 0 64-28.652 64-64v-576c0-35.348-28.652-64-64-64h-640v704zM3200 896h640v-704h-640c-35.348 0-64 28.652-64 64v576c0 35.348 28.652 64 64 64zM2240 896h576c35.348 0 64-28.652 64-64v-576c0-35.348-28.652-64-64-64h-576c-35.348 0-64 28.652-64 64v576c0 35.348 28.652 64 64 64zM1280 896h576c35.348 0 64-28.652 64-64v-576c0-35.348-28.652-64-64-64h-576c-35.348 0-64 28.652-64 64v576c0 35.348 28.652 64 64 64zM256-64h640c35.348 0 64-28.652 64-64v-640h-704v704zM3200-64h640v-704h-704v640c0 35.348 28.652 64 64 64zM2240-64h576c35.348 0 64-28.652 64-64v-640h-704v640c0 35.348 28.652 64 64 64zM1280-64h576c35.348 0 64-28.652 64-64v-640h-704v640c0 35.348 28.652 64 64 64z" />
<glyph unicode="&#xe903;" glyph-name="555" d="M256 2816h512v-448c0-35.348-28.652-64-64-64h-448v512zM2560 2816h512v-448c0-35.348-28.652-64-64-64h-384c-35.348 0-64 28.652-64 64v448zM3328 2816h512v-512h-448c-35.348 0-64 28.652-64 64v448zM1792 2816h512v-448c0-35.348-28.652-64-64-64h-384c-35.348 0-64 28.652-64 64v448zM1024 2816h512v-448c0-35.348-28.652-64-64-64h-384c-35.348 0-64 28.652-64 64v448zM256 2048h448c35.348 0 64-28.652 64-64v-384c0-35.348-28.652-64-64-64h-448v512zM2624 2048h384c35.348 0 64-28.652 64-64v-384c0-35.348-28.652-64-64-64h-384c-35.348 0-64 28.652-64 64v384c0 35.348 28.652 64 64 64zM3392 2048h448v-512h-448c-35.348 0-64 28.652-64 64v384c0 35.348 28.652 64 64 64zM1856 2048h384c35.348 0 64-28.652 64-64v-384c0-35.348-28.652-64-64-64h-384c-35.348 0-64 28.652-64 64v384c0 35.348 28.652 64 64 64zM1088 2048h384c35.348 0 64-28.652 64-64v-384c0-35.348-28.652-64-64-64h-384c-35.348 0-64 28.652-64 64v384c0 35.348 28.652 64 64 64zM256 1280h448c35.348 0 64-28.652 64-64v-384c0-35.348-28.652-64-64-64h-448v512zM2624 1280h384c35.348 0 64-28.652 64-64v-384c0-35.348-28.652-64-64-64h-384c-35.348 0-64 28.652-64 64v384c0 35.348 28.652 64 64 64zM3392 1280h448v-512h-448c-35.348 0-64 28.652-64 64v384c0 35.348 28.652 64 64 64zM1856 1280h384c35.348 0 64-28.652 64-64v-384c0-35.348-28.652-64-64-64h-384c-35.348 0-64 28.652-64 64v384c0 35.348 28.652 64 64 64zM1088 1280h384c35.348 0 64-28.652 64-64v-384c0-35.348-28.652-64-64-64h-384c-35.348 0-64 28.652-64 64v384c0 35.348 28.652 64 64 64zM256 512h448c35.348 0 64-28.652 64-64v-384c0-35.348-28.652-64-64-64h-448v512zM2624 512h384c35.348 0 64-28.652 64-64v-384c0-35.348-28.652-64-64-64h-384c-35.348 0-64 28.652-64 64v384c0 35.348 28.652 64 64 64zM3392 512h448v-512h-448c-35.348 0-64 28.652-64 64v384c0 35.348 28.652 64 64 64zM1856 512h384c35.348 0 64-28.652 64-64v-384c0-35.348-28.652-64-64-64h-384c-35.348 0-64 28.652-64 64v384c0 35.348 28.652 64 64 64zM1088 512h384c35.348 0 64-28.652 64-64v-384c0-35.348-28.652-64-64-64h-384c-35.348 0-64 28.652-64 64v384c0 35.348 28.652 64 64 64zM256-256h448c35.348 0 64-28.652 64-64v-448h-512v512zM2624-256h384c35.348 0 64-28.652 64-64v-448h-512v448c0 35.348 28.652 64 64 64zM3392-256h448v-512h-512v448c0 35.348 28.652 64 64 64zM1856-256h384c35.348 0 64-28.652 64-64v-448h-512v448c0 35.348 28.652 64 64 64zM1088-256h384c35.348 0 64-28.652 64-64v-448h-512v448c0 35.348 28.652 64 64 64z" />
<glyph unicode="&#xe904;" glyph-name="666" d="M192 2880h480v-432c0-35.348-28.652-64-64-64h-416v496zM2144 2880h448v-432c0-35.348-28.652-64-64-64h-320c-35.348 0-64 28.652-64 64v432zM2784 2880h448v-432c0-35.348-28.652-64-64-64h-320c-35.348 0-64 28.652-64 64v432zM3424 2880h480v-496h-416c-35.348 0-64 28.652-64 64v432zM1504 2880h448v-432c0-35.348-28.652-64-64-64h-320c-35.348 0-64 28.652-64 64v432zM864 2880h448v-432c0-35.348-28.652-64-64-64h-320c-35.348 0-64 28.652-64 64v432zM192 2208h416c35.348 0 64-28.652 64-64v-320c0-35.348-28.652-64-64-64h-416v448zM2208 2208h320c35.348 0 64-28.652 64-64v-320c0-35.348-28.652-64-64-64h-320c-35.348 0-64 28.652-64 64v320c0 35.348 28.652 64 64 64zM2848 2208h320c35.348 0 64-28.652 64-64v-320c0-35.348-28.652-64-64-64h-320c-35.348 0-64 28.652-64 64v320c0 35.348 28.652 64 64 64zM3488 2208h416v-448h-416c-35.348 0-64 28.652-64 64v320c0 35.348 28.652 64 64 64zM1568 2208h320c35.348 0 64-28.652 64-64v-320c0-35.348-28.652-64-64-64h-320c-35.348 0-64 28.652-64 64v320c0 35.348 28.652 64 64 64zM928 2208h320c35.348 0 64-28.652 64-64v-320c0-35.348-28.652-64-64-64h-320c-35.348 0-64 28.652-64 64v320c0 35.348 28.652 64 64 64zM192 1568h416c35.348 0 64-28.652 64-64v-320c0-35.348-28.652-64-64-64h-416v448zM2208 1568h320c35.348 0 64-28.652 64-64v-320c0-35.348-28.652-64-64-64h-320c-35.348 0-64 28.652-64 64v320c0 35.348 28.652 64 64 64zM2848 1568h320c35.348 0 64-28.652 64-64v-320c0-35.348-28.652-64-64-64h-320c-35.348 0-64 28.652-64 64v320c0 35.348 28.652 64 64 64zM3488 1568h416v-448h-416c-35.348 0-64 28.652-64 64v320c0 35.348 28.652 64 64 64zM1568 1568h320c35.348 0 64-28.652 64-64v-320c0-35.348-28.652-64-64-64h-320c-35.348 0-64 28.652-64 64v320c0 35.348 28.652 64 64 64zM928 1568h320c35.348 0 64-28.652 64-64v-320c0-35.348-28.652-64-64-64h-320c-35.348 0-64 28.652-64 64v320c0 35.348 28.652 64 64 64zM192 928h416c35.348 0 64-28.652 64-64v-320c0-35.348-28.652-64-64-64h-416v448zM2208 928h320c35.348 0 64-28.652 64-64v-320c0-35.348-28.652-64-64-64h-320c-35.348 0-64 28.652-64 64v320c0 35.348 28.652 64 64 64zM2848 928h320c35.348 0 64-28.652 64-64v-320c0-35.348-28.652-64-64-64h-320c-35.348 0-64 28.652-64 64v320c0 35.348 28.652 64 64 64zM3488 928h416v-448h-416c-35.348 0-64 28.652-64 64v320c0 35.348 28.652 64 64 64zM1568 928h320c35.348 0 64-28.652 64-64v-320c0-35.348-28.652-64-64-64h-320c-35.348 0-64 28.652-64 64v320c0 35.348 28.652 64 64 64zM928 928h320c35.348 0 64-28.652 64-64v-320c0-35.348-28.652-64-64-64h-320c-35.348 0-64 28.652-64 64v320c0 35.348 28.652 64 64 64zM192 288h416c35.348 0 64-28.652 64-64v-320c0-35.348-28.652-64-64-64h-416v448zM2208 288h320c35.348 0 64-28.652 64-64v-320c0-35.348-28.652-64-64-64h-320c-35.348 0-64 28.652-64 64v320c0 35.348 28.652 64 64 64zM2848 288h320c35.348 0 64-28.652 64-64v-320c0-35.348-28.652-64-64-64h-320c-35.348 0-64 28.652-64 64v320c0 35.348 28.652 64 64 64zM3488 288h416v-448h-416c-35.348 0-64 28.652-64 64v320c0 35.348 28.652 64 64 64zM1568 288h320c35.348 0 64-28.652 64-64v-320c0-35.348-28.652-64-64-64h-320c-35.348 0-64 28.652-64 64v320c0 35.348 28.652 64 64 64zM928 288h320c35.348 0 64-28.652 64-64v-320c0-35.348-28.652-64-64-64h-320c-35.348 0-64 28.652-64 64v320c0 35.348 28.652 64 64 64zM192-352h416c35.348 0 64-28.652 64-64v-416h-480v480zM2208-352h320c35.348 0 64-28.652 64-64v-416h-448v416c0 35.348 28.652 64 64 64zM2848-352h320c35.348 0 64-28.652 64-64v-416h-448v416c0 35.348 28.652 64 64 64zM3488-352h416v-480h-480v416c0 35.348 28.652 64 64 64zM1568-352h320c35.348 0 64-28.652 64-64v-416h-448v416c0 35.348 28.652 64 64 64zM928-352h320c35.348 0 64-28.652 64-64v-416h-448v416c0 35.348 28.652 64 64 64z" />
<glyph unicode="&#xe905;" glyph-name="777" d="M192 2880h512v-448c0-35.348-28.652-64-64-64h-448v512zM3392 2880h512v-512h-448c-35.348 0-64 28.652-64 64v448zM1856 2880h384v-448c0-35.348-28.652-64-64-64h-256c-35.348 0-64 28.652-64 64v448zM2368 2880h384v-448c0-35.348-28.652-64-64-64h-256c-35.348 0-64 28.652-64 64v448zM2880 2880h384v-448c0-35.348-28.652-64-64-64h-256c-35.348 0-64 28.652-64 64v448zM1344 2880h384v-448c0-35.348-28.652-64-64-64h-256c-35.348 0-64 28.652-64 64v448zM832 2880h384v-448c0-35.348-28.652-64-64-64h-256c-35.348 0-64 28.652-64 64v448zM192 2240h448c35.348 0 64-28.652 64-64v-256c0-35.348-28.652-64-64-64h-448v384zM3456 2240h448v-384h-448c-35.348 0-64 28.652-64 64v256c0 35.348 28.652 64 64 64zM1920 2240h256c35.348 0 64-28.652 64-64v-256c0-35.348-28.652-64-64-64h-256c-35.348 0-64 28.652-64 64v256c0 35.348 28.652 64 64 64zM2432 2240h256c35.348 0 64-28.652 64-64v-256c0-35.348-28.652-64-64-64h-256c-35.348 0-64 28.652-64 64v256c0 35.348 28.652 64 64 64zM2944 2240h256c35.348 0 64-28.652 64-64v-256c0-35.348-28.652-64-64-64h-256c-35.348 0-64 28.652-64 64v256c0 35.348 28.652 64 64 64zM1408 2240h256c35.348 0 64-28.652 64-64v-256c0-35.348-28.652-64-64-64h-256c-35.348 0-64 28.652-64 64v256c0 35.348 28.652 64 64 64zM896 2240h256c35.348 0 64-28.652 64-64v-256c0-35.348-28.652-64-64-64h-256c-35.348 0-64 28.652-64 64v256c0 35.348 28.652 64 64 64zM192 1728h448c35.348 0 64-28.652 64-64v-256c0-35.348-28.652-64-64-64h-448v384zM3456 1728h448v-384h-448c-35.348 0-64 28.652-64 64v256c0 35.348 28.652 64 64 64zM1920 1728h256c35.348 0 64-28.652 64-64v-256c0-35.348-28.652-64-64-64h-256c-35.348 0-64 28.652-64 64v256c0 35.348 28.652 64 64 64zM2432 1728h256c35.348 0 64-28.652 64-64v-256c0-35.348-28.652-64-64-64h-256c-35.348 0-64 28.652-64 64v256c0 35.348 28.652 64 64 64zM2944 1728h256c35.348 0 64-28.652 64-64v-256c0-35.348-28.652-64-64-64h-256c-35.348 0-64 28.652-64 64v256c0 35.348 28.652 64 64 64zM1408 1728h256c35.348 0 64-28.652 64-64v-256c0-35.348-28.652-64-64-64h-256c-35.348 0-64 28.652-64 64v256c0 35.348 28.652 64 64 64zM896 1728h256c35.348 0 64-28.652 64-64v-256c0-35.348-28.652-64-64-64h-256c-35.348 0-64 28.652-64 64v256c0 35.348 28.652 64 64 64zM192 1216h448c35.348 0 64-28.652 64-64v-256c0-35.348-28.652-64-64-64h-448v384zM3456 1216h448v-384h-448c-35.348 0-64 28.652-64 64v256c0 35.348 28.652 64 64 64zM1920 1216h256c35.348 0 64-28.652 64-64v-256c0-35.348-28.652-64-64-64h-256c-35.348 0-64 28.652-64 64v256c0 35.348 28.652 64 64 64zM2432 1216h256c35.348 0 64-28.652 64-64v-256c0-35.348-28.652-64-64-64h-256c-35.348 0-64 28.652-64 64v256c0 35.348 28.652 64 64 64zM2944 1216h256c35.348 0 64-28.652 64-64v-256c0-35.348-28.652-64-64-64h-256c-35.348 0-64 28.652-64 64v256c0 35.348 28.652 64 64 64zM1408 1216h256c35.348 0 64-28.652 64-64v-256c0-35.348-28.652-64-64-64h-256c-35.348 0-64 28.652-64 64v256c0 35.348 28.652 64 64 64zM896 1216h256c35.348 0 64-28.652 64-64v-256c0-35.348-28.652-64-64-64h-256c-35.348 0-64 28.652-64 64v256c0 35.348 28.652 64 64 64zM192 704h442.080c35.348 0 64-28.652 64-64v-256c0-35.348-28.652-64-64-64h-442.080v384zM3456 704h448v-384h-448c-35.348 0-64 28.652-64 64v256c0 35.348 28.652 64 64 64zM1920 704h256c35.348 0 64-28.652 64-64v-256c0-35.348-28.652-64-64-64h-256c-35.348 0-64 28.652-64 64v256c0 35.348 28.652 64 64 64zM2432 704h256c35.348 0 64-28.652 64-64v-256c0-35.348-28.652-64-64-64h-256c-35.348 0-64 28.652-64 64v256c0 35.348 28.652 64 64 64zM2944 704h256c35.348 0 64-28.652 64-64v-256c0-35.348-28.652-64-64-64h-256c-35.348 0-64 28.652-64 64v256c0 35.348 28.652 64 64 64zM1408 704h256c35.348 0 64-28.652 64-64v-256c0-35.348-28.652-64-64-64h-256c-35.348 0-64 28.652-64 64v256c0 35.348 28.652 64 64 64zM896 704h256c35.348 0 64-28.652 64-64v-256c0-35.348-28.652-64-64-64h-256c-35.348 0-64 28.652-64 64v256c0 35.348 28.652 64 64 64zM192 192h448c35.348 0 64-28.652 64-64v-256c0-35.348-28.652-64-64-64h-448v384zM3456 192h448v-384h-448c-35.348 0-64 28.652-64 64v256c0 35.348 28.652 64 64 64zM1920 192h256c35.348 0 64-28.652 64-64v-256c0-35.348-28.652-64-64-64h-256c-35.348 0-64 28.652-64 64v256c0 35.348 28.652 64 64 64zM2432 192h256c35.348 0 64-28.652 64-64v-256c0-35.348-28.652-64-64-64h-256c-35.348 0-64 28.652-64 64v256c0 35.348 28.652 64 64 64zM2944 192h256c35.348 0 64-28.652 64-64v-256c0-35.348-28.652-64-64-64h-256c-35.348 0-64 28.652-64 64v256c0 35.348 28.652 64 64 64zM1408 192h256c35.348 0 64-28.652 64-64v-256c0-35.348-28.652-64-64-64h-256c-35.348 0-64 28.652-64 64v256c0 35.348 28.652 64 64 64zM896 192h256c35.348 0 64-28.652 64-64v-256c0-35.348-28.652-64-64-64h-256c-35.348 0-64 28.652-64 64v256c0 35.348 28.652 64 64 64zM192-320h448c35.348 0 64-28.652 64-64v-448h-512v512zM3456-320h448v-512h-512v448c0 35.348 28.652 64 64 64zM1920-320h256c35.348 0 64-28.652 64-64v-448h-384v448c0 35.348 28.652 64 64 64zM2432-320h256c35.348 0 64-28.652 64-64v-448h-384v448c0 35.348 28.652 64 64 64zM2944-320h256c35.348 0 64-28.652 64-64v-448h-384v448c0 35.348 28.652 64 64 64zM1408-320h256c35.348 0 64-28.652 64-64v-448h-384v448c0 35.348 28.652 64 64 64zM896-320h256c35.348 0 64-28.652 64-64v-448h-384v448c0 35.348 28.652 64 64 64z" />
<glyph unicode="&#xe906;" glyph-name="333bf" d="M624 2246.4c189.956 97.068 410.376 170.772 642.624 209.516l13.376 360.084h-1024v-852.48c103.832 112.796 225.42 207.232 360.716 279.336zM3840 1963.52v852.48h-1024v-358.24c245.624-40.588 466.044-114.292 669.032-217.364 129.544-69.644 251.136-164.080 354.1-275.924zM2026.080 2496h43.84c174.56 0 334.4 0 490.080-10.24v330.24h-1024v-330.24c155.68 10.24 315.68 10.24 490.080 10.24zM2026.080 610.88c-139.36 0-277.6-36.8-416-86.88 15.8-7.548 34.34-11.968 53.908-12h768.012c19.524 0.056 38.008 4.476 54.536 12.332-139.176 49.748-277.416 86.548-416.776 86.548zM1152 256h-896v-1024h1024v896c0 70.692-57.308 128-128 128zM2816 128v-896h1024v1024h-896c-70.692 0-128-57.308-128-128zM2432 256h-768c-70.692 0-128-57.308-128-128v-896h1024v896c0 70.692-57.308 128-128 128zM2041.92 807.52c-338.24 0-668.8-221.6-1014.56-273.28-472.48-70.24-778.56 567.52-758.88 832.8 16.8 226.72 106.24 510.24 544.96 725.12 449.12 195.84 785.12 195.84 1228.48 195.84h12.16c443.36 0 779.36 0 1228.48-196 438.72-214.88 528-498.4 544.96-725.12 19.68-265.28-286.24-903.52-758.88-832.96-345.76 51.68-688 273.28-1026.72 273.28z" />
<glyph unicode="&#xe907;" glyph-name="333fm" d="M1280 1920v896h-1024v-1024h896c70.692 0 128 57.308 128 128zM3059.68 2556.32l520.64-520.64c43.68-43.68 50.88-107.52 16-142.4l-101.28-101.28h344.96v1024h-1024v-344.96l101.28 101.28c34.88 35.68 98.56 27.84 142.4-16zM2560 2816h-1024v-896c0-70.692 57.308-128 128-128h472.96l423.040 423.040zM1280 935.040v472.96c0 70.692-57.308 128-128 128h-896v-1024h625.92l14.24 39.36zM2816 640c0-70.692 57.308-128 128-128h896v1024h-600.96l-423.040-423.040zM1664 1536c-70.692 0-128-57.308-128-128v-216.96l344.96 344.96zM2432 512c70.692 0 128 57.308 128 128v216.96l-344.96-344.96zM788.96 256h-532.96v-1024h1024v532.96l-771.040-280zM2816 128v-896h1024v1024h-896c-70.692 0-128-57.308-128-128zM1536-142.080v-625.92h1024v896c0 70.692-57.308 128-128 128h-472.96l-384-384zM1322.56 77.92c-102.512 38.656-181.984 118.128-219.788 218.072l1736.108 1739.528 220.64-220.64zM1466.4-65.92q-87.2-9.44-77.6 77.6l1736.96 1736.96 77.6-77.6zM1035.84 364.8q-87.2-9.44-77.6 77.6l1736.8 1736.96 77.6-77.6z" />
<glyph unicode="&#xe908;" glyph-name="333oh" d="M444.32 2468v113.28c0 0.020 0 0.048 0 0.072 0 93.956 42.268 178.040 108.824 234.272l-297.144 0.372v-361.44c33.896 14.26 73.3 22.544 114.636 22.544 26.172 0 51.564-3.32 75.784-9.564zM2816 2816v-896c0-70.692 57.308-128 128-128h896v1024zM1819.84 2534.56v-716.32c73.468 45.412 162.54 72.32 257.9 72.32 0.288 0 0.576 0 0.864 0 65.94-0.228 122.492-40.36 146.76-97.512l206.636-1.048c70.692 0 128 57.308 128 128v896h-924c109.148-48.776 183.836-156.384 183.84-281.44zM2816 1408v-768c0-70.692 57.308-128 128-128h896v1024h-896c-70.692 0-128-57.308-128-128zM2432 512c70.692 0 128 57.308 128 128v768c0 70.692-57.308 128-128 128h-194.080v-1024zM256-545.12v-222.88h115.36v81.92c-41.076 42.388-78.98 88.42-112.996 137.364zM2816 128v-896h1024v1024h-896c-70.692 0-128-57.308-128-128zM2237.92 71.040c0-0.24 0-0.528 0-0.812 0-336.876-153.624-637.872-394.636-836.752l716.716-1.476v896c0 70.692-57.308 128-128 128h-194.080v-184.96zM2032 1705.12c-179.292 0-324.64-145.348-324.64-324.64v-460.64c-20.764 12.368-45.524 24.904-71.136 35.836l-4.224 1520.804c0 78.248-63.432 141.68-141.68 141.68s-141.68-63.432-141.68-141.68v-1468.48h-80v1666.4c0 78.248-63.432 141.68-141.68 141.68s-141.68-63.432-141.68-141.68v-1666.4h-80v1520c0 78.248-63.432 141.68-141.68 141.68s-141.68-63.432-141.68-141.68v-1520h-80v1075.84c0 78.204-63.396 141.6-141.6 141.6v0c-0.808 0.016-1.764 0.028-2.72 0.028-78.204 0-141.6-63.396-141.6-141.6 0-0.008 0-0.020 0-0.028v-1968c0-1.6 0-3.040 0-4.48 2.956-291.56 146.252-549.040 365.452-708.476l2.548-170.884h865.6v69.92c321.392 138.292 542.348 452.216 542.4 817.752v1585.448z" />
<glyph unicode="&#xe909;" glyph-name="333ft" d="M334.88 2264.8c53.76 31.2 0 138.4 60.96 243.68 10.080 17.44 44.96 74.56 104.64 91.2 70.4 19.68 107.2-47.040 160-26.24 56.48 22.56 30.4 108 105.6 178.72 5.28 4.96 76.8 70.4 154.080 55.84s91.2-91.36 134.24-84.32c30.72 4.96 36.64 46.72 55.040 92.16h-853.44v-559.84h1.76c48.64 12.64 56.48-3.040 77.12 8.8zM2816 2816v-896c0-70.692 57.308-128 128-128h896v1024zM2174.72 2720c24.328-57.636 38.464-124.644 38.464-194.952 0-28.672-2.352-56.796-6.872-84.188-17.46-106.724-52.184-205.184-101.352-294.58-18.080-31.24-47.2-75.24-52.48-141-0.452-5.988-0.712-12.968-0.712-20.008 0-34.32 6.124-67.204 17.34-97.628 8.604-26.9 14.38-60.176 15.356-94.652l347.532-0.512c70.692 0 128 57.308 128 128v895.52h-435.68c18.456-27.556 35.36-59.14 49.076-92.372zM256 512h81.12c-16.328 142.684-44.84 272.052-85.108 396.124zM2816 1408v-768c0-70.692 57.308-128 128-128h896v1024h-896c-70.692 0-128-57.308-128-128zM1536 765.12v-125.12c0-70.692 57.308-128 128-128h768c70.692 0 128 57.308 128 128v768c0 70.692-57.308 128-128 128h-373.76c-14.080-71.84-29.6-128-33.76-140.32-116.64-358.080-364.16-435.68-488.48-630.56zM368-366.88c-26.56 281.92-5.92 384-12.96 622.88h-99.040v-1024h258.080c-17.92 23.36-32 44.64-40.96 60-84 134.24-98.4 264.64-105.12 341.12zM2816 128v-896h1024v1024h-896c-70.692 0-128-57.308-128-128zM1536-665.28v-102.72h1024v896c0 70.692-57.308 128-128 128h-768c-70.692 0-128-57.308-128-128v-56.16c50.24-136.8 88.64-156.16 107.52-268.48 36.48-217.92-64.96-402.56-107.52-468.64zM1823.040 1799.84c106.56-183.040 17.28-414.24 4.96-444.8-112-276.48-381.76-303.040-489.92-619.36-34.24-100.16-35.36-180.32-36.32-258.080-4.8-382.72 205.76-481.6 172.48-739.84-24.16-187.68-173.12-379.52-372-438.72-20-5.92-217.6-61.6-372 43.040-80 53.76-138.080 144-178.080 390.080-47.040 290.24-10.080 439.040-10.080 650.24 0 606.4-306.4 768.96-156.8 1179.040 26.24 72.16 72.48 194.24 192 299.52 343.36 303.84 1058.72 260.16 1245.76-61.12zM1861.92 2729.76c120.8-23.52 184-263.84 144-443.040-19.2-84.48-80-238.080-175.040-246.080-118.4-10.080-273.12 208-240.96 405.76 24.64 155.2 165.76 304.16 272 283.36zM1447.52 2481.12c0-134.936-67.048-244.32-149.76-244.32s-149.76 109.384-149.76 244.32c0 134.936 67.048 244.32 149.76 244.32s149.76-109.384 149.76-244.32zM1028.48 2386.080c0-120.532-54.228-218.24-121.12-218.24s-121.12 97.708-121.12 218.24c0 120.532 54.228 218.24 121.12 218.24s121.12-97.708 121.12-218.24zM695.040 2236.8c0-96.848-44.484-175.36-99.36-175.36s-99.36 78.512-99.36 175.36c0 96.848 44.484 175.36 99.36 175.36s99.36-78.512 99.36-175.36zM448.16 1968.64c0-73.432-37.18-132.96-83.040-132.96s-83.040 59.528-83.040 132.96c0 73.432 37.18 132.96 83.040 132.96s83.040-59.528 83.040-132.96z" />
<glyph unicode="&#xe90a;" glyph-name="minx" d="M2797.76 2265.6l-749.76 544.64-752.64-546.72 749.76-544.8 752.64 546.88zM1887.040 1604l-749.76 544.64-39.36-28.48 286.4-881.44 502.72 365.28zM192 1461.92l286.4-881.44 747.84 543.36-286.24 881.44-748-543.36zM2645.44 1052.96l-600.32 436.16-600.48-436.16 229.44-705.76h742.080l229.28 705.76zM2020.8-720h48.64l286.4 881.44h-621.44l286.4-881.44zM1286.72 938.080l-748-543.36 15.52-47.52h924.48l-192 590.88zM900.96-720h924.48l-286.4 881.44h-924.48l286.4-881.44zM2993.28 2123.52l-37.44 27.2-752.64-546.72 502.72-365.28 287.36 884.8zM3556.16 391.36l-752.64 546.72-192-590.88h930.24l14.4 44.16zM2264.8-720h930.24l286.4 881.44h-930.24l-286.4-881.44zM3904 1461.92l-752.64 546.72-287.52-884.8 752.64-546.72 287.52 884.8z" />
<glyph unicode="&#xe90b;" glyph-name="pyram" d="M613.12 192.96l493.6-855.040c5.392-9.18 8.576-20.216 8.576-32 0-35.324-28.616-63.964-63.932-64h-987.364c-35.316 0.036-63.936 28.676-63.936 64 0 11.784 3.184 22.82 8.736 32.304l493.436 854.74c11.268 19.28 31.864 32.024 55.44 32.024s44.172-12.744 55.276-31.724zM2103.36 192.96l493.6-855.040c5.392-9.18 8.576-20.216 8.576-32 0-35.324-28.616-63.964-63.932-64h-987.204c-35.316 0.036-63.936 28.676-63.936 64 0 11.784 3.184 22.82 8.736 32.304l493.436 854.74c11.288 19.2 31.84 31.888 55.36 31.888s44.072-12.684 55.196-31.588zM3593.76 192.96l493.6-855.040c5.392-9.18 8.576-20.216 8.576-32 0-35.324-28.616-63.964-63.932-64h-987.364c-35.316 0.036-63.936 28.676-63.936 64 0 11.784 3.184 22.82 8.736 32.304l493.436 854.74c11.268 19.28 31.864 32.024 55.44 32.024s44.172-12.744 55.276-31.724zM1358.24 1483.52l493.6-855.040c5.392-9.18 8.576-20.216 8.576-32 0-35.324-28.616-63.964-63.932-64h-987.364c-35.316 0.036-63.936 28.676-63.936 64 0 11.784 3.184 22.82 8.736 32.304l494.076 854.74c11.34 18.972 31.768 31.476 55.12 31.476s43.78-12.504 54.96-31.184zM2848 1483.52l493.6-855.040c5.392-9.18 8.576-20.216 8.576-32 0-35.324-28.616-63.964-63.932-64h-986.724c-35.316 0.036-63.936 28.676-63.936 64 0 11.784 3.184 22.82 8.736 32.304l493.436 854.74c11.34 18.972 31.768 31.476 55.12 31.476s43.78-12.504 54.96-31.184zM2103.36 2774.080l493.6-855.040c5.392-9.18 8.576-20.216 8.576-32 0-35.324-28.616-63.964-63.932-64h-987.204c-35.316 0.036-63.936 28.676-63.936 64 0 11.784 3.184 22.82 8.736 32.304l493.436 854.74c11.288 19.2 31.84 31.888 55.36 31.888s44.072-12.684 55.196-31.588zM1992.64 709.76l-493.76 854.88c-5.392 9.18-8.576 20.216-8.576 32 0 35.324 28.616 63.964 63.932 64h987.364c35.316-0.036 63.936-28.676 63.936-64 0-11.784-3.184-22.82-8.736-32.304l-493.436-854.74c-11.296-19.156-31.828-31.808-55.312-31.808-23.552 0-44.132 12.72-55.244 31.664zM1248-580.96l-494.24 855.040c-5.392 9.18-8.576 20.216-8.576 32 0 35.324 28.616 63.964 63.932 64h987.364c35.316-0.036 63.936-28.676 63.936-64 0-11.784-3.184-22.82-8.736-32.304l-493.436-854.74c-11.34-18.972-31.768-31.476-55.12-31.476s-43.78 12.504-54.96 31.184zM2737.76-580.96l-493.6 855.040c-5.392 9.18-8.576 20.216-8.576 32 0 35.324 28.616 63.964 63.932 64h987.364c35.316-0.036 63.936-28.676 63.936-64 0-11.784-3.184-22.82-8.736-32.304l-494.076-854.74c-11.34-18.972-31.768-31.476-55.12-31.476s-43.78 12.504-54.96 31.184z" />
<glyph unicode="&#xe90c;" glyph-name="clock" d="M3520 1.76c200.308 285.256 320.112 639.716 320.112 1022.16s-119.804 736.904-323.928 1027.9c-16.244 234.404-206.384 424.376-444.812 444.060-286.912 200.188-641.168 319.84-1023.372 319.84s-736.46-119.652-1027.352-323.544c-234.448-15.98-424.584-205.952-444.528-444.308-200.428-287.048-320.232-641.508-320.232-1023.948s119.804-736.904 323.928-1027.9c16.312-234.288 206.34-424.152 444.648-443.9 286.916-200.188 641.172-319.844 1023.376-319.844s736.46 119.652 1027.352 323.544c234.468 15.896 424.66 205.812 444.688 444.144zM3030.24 2332.8c0.048 0 0.104 0 0.16 0 180.264 0 326.4-146.136 326.4-326.4s-146.136-326.4-326.4-326.4c-180.264 0-326.4 146.136-326.4 326.4 0 0.056 0 0.112 0 0.168 0.092 180.132 146.1 326.14 326.232 326.232zM2704 1024c0 180.264 146.136 326.4 326.4 326.4s326.4-146.136 326.4-326.4c0-180.264-146.136-326.4-326.4-326.4s-326.4 146.136-326.4 326.4zM2704 41.44c0 180.264 146.136 326.4 326.4 326.4s326.4-146.136 326.4-326.4c0-180.264-146.136-326.4-326.4-326.4-180.208 0-326.308 146.044-326.4 326.232zM1065.6-285.12c-180.264 0-326.4 146.136-326.4 326.4s146.136 326.4 326.4 326.4c180.264 0 326.4-146.136 326.4-326.4s-146.136-326.4-326.4-326.4zM1392 2006.56c0-0.048 0-0.104 0-0.16 0-180.264-146.136-326.4-326.4-326.4s-326.4 146.136-326.4 326.4c0 180.264 146.136 326.4 326.4 326.4 180.208 0 326.308-146.044 326.4-326.232zM1392 1024c0-180.264-146.136-326.4-326.4-326.4s-326.4 146.136-326.4 326.4c0 180.264 146.136 326.4 326.4 326.4s326.4-146.136 326.4-326.4zM2048-284.96c-180.264 0-326.4 146.136-326.4 326.4s146.136 326.4 326.4 326.4c180.264 0 326.4-146.136 326.4-326.4 0-0.048 0-0.104 0-0.16 0-180.264-146.136-326.4-326.4-326.4zM2048 697.6c-180.264 0-326.4 146.136-326.4 326.4s146.136 326.4 326.4 326.4c180.264 0 326.4-146.136 326.4-326.4s-146.136-326.4-326.4-326.4zM2048 1680c-180.264 0-326.4 146.136-326.4 326.4s146.136 326.4 326.4 326.4c180.264 0 326.4-146.136 326.4-326.4s-146.136-326.4-326.4-326.4z" />
<glyph unicode="&#xe90d;" glyph-name="skewb" d="M557.296 1069.256l1445.44 1445.44c24.992 24.992 65.516 24.992 90.508 0l1445.44-1445.44c24.992-24.992 24.992-65.516 0-90.508l-1445.44-1445.44c-24.992-24.992-65.516-24.992-90.508 0l-1445.44 1445.44c-24.992 24.992-24.992 65.516 0 90.508zM1600 2688h-1216v-1216c0-17.672 14.328-32 32-32l1216 1216c0 17.672-14.328 32-32 32zM1600-576l-1184 1184c-17.672 0-32-14.328-32-32v-1216h1216c17.672 0 32 14.328 32 32zM3680 608l-1216-1216c0-17.672 14.328-32 32-32h1216v1216c0 17.672-14.328 32-32 32zM2496 2688c-17.672 0-32-14.328-32-32l1216-1216c17.672 0 32 14.328 32 32v1216z" />
<glyph unicode="&#xe90e;" glyph-name="sq1" d="M3712 1360.96l-1257.44-336.96 1257.44-336.96v673.92zM1711.040-640h673.92l-336.96 1257.44-336.96-1257.44zM2384.96 2688h-673.92l336.96-1257.44 336.96 1257.44zM384 1360.96v-673.92l1257.44 336.96-1257.44 336.96zM2196.8 875.2l405.92-1515.2h1109.28v1109.28l-1515.2 405.92zM2602.72 2688l-405.92-1515.2 1515.2 405.92v1109.28h-1109.28zM1493.28 2688h-1109.28v-1109.28l1515.2-405.92-405.92 1515.2zM384 469.28v-1109.28h1109.28l405.92 1515.2-1515.2-405.92z" />
<glyph unicode="&#xe90f;" glyph-name="444bf" d="M960 2382.080v433.92h-704v-704h160c60.44 46.72 128.464 91.244 199.888 130.332 100.58 51.036 211.74 96.992 326.616 134.764zM3680 2112h160v704h-704v-433.92c132.372-42.756 243.532-88.712 350.292-142.16 65.244-36.676 133.268-81.2 197.336-130.608zM2880 2816h-704v-320c250.88 0 474.24-5.92 704-49.44zM1920 2816h-704v-369.44c229.76 43.36 453.12 48 704 49.44zM256 585.12v-393.12h640c35.348 0 64 28.652 64 64v26.24c-30.72-7.52-61.44-14.24-92.48-19.36-251.2-41.92-461.12 111.84-611.52 322.24zM3228.48 262.88c-30.88 5.12-61.76 11.84-92.48 19.36v-26.24c0-35.348 28.652-64 64-64h640v393.12c-150.4-210.4-360.32-364.16-611.52-322.24zM2176 256c0-35.348 28.652-64 64-64h576c35.348 0 64 28.652 64 64v109.92c-236.32 91.84-468.96 208.96-704 238.080zM1216 256c0-35.348 28.652-64 64-64h576c35.348 0 64 28.652 64 64v348.16c-235.040-29.12-467.68-146.24-704-238.080zM896-64h-640v-704h704v640c0 35.348-28.652 64-64 64zM3136-128v-640h704v704h-640c-35.348 0-64-28.652-64-64zM2816-64h-576c-35.348 0-64-28.652-64-64v-640h704v640c0 35.348-28.652 64-64 64zM1856-64h-576c-35.348 0-64-28.652-64-64v-640h704v640c0 35.348-28.652 64-64 64zM2041.92 808c-338.080 0-668.64-221.6-1014.4-273.28-472.48-70.72-778.4 567.52-758.72 832 16.8 226.72 106.24 510.24 544.8 724.96 449.12 196.32 785.12 196.32 1228.32 196.32h12.16c443.2 0 779.2 0 1228.16-196 438.56-214.88 528-498.24 544.8-724.96 19.68-265.12-286.24-903.36-758.72-832-345.76 51.68-688 273.28-1026.4 273.28z" />
<glyph unicode="&#xe910;" glyph-name="555bf" d="M768 2368v448h-512v-512h448c35.348 0 64 28.652 64 64zM3072 2816h-512v-330.24c186.66-10.696 361.56-40.852 529.028-88.636zM3392 2304h448v512h-512v-448c0-35.348 28.652-64 64-64zM2026.080 2496h43.84c80.8 0 158.56 0 234.080-0.96v320.96h-512v-320.96c75.68 0.96 153.28 0.96 234.080 0.96zM1536 2816h-512v-414.72c150.44 43.628 325.34 73.784 505.536 84.184zM339.84 2048h-83.84v-84.48c26.84 29.98 54.204 57.548 82.92 83.656zM3840 1963.52v84.48h-83.84c29.636-26.932 57-54.5 82.896-83.408zM312.8 512h-56.8v-512h448c35.348 0 64 28.652 64 64v192c-178.56 6.56-332.8 111.040-455.2 256zM2560 448v-384c0-35.348 28.652-64 64-64h384c35.348 0 64 28.652 64 64v235.52c-167.2 48.96-331.84 125.44-496 190.4-9.844-11.124-15.892-25.804-16-41.896zM3328 256v-192c0-35.348 28.652-64 64-64h448v512h-56.8c-122.4-144.96-276.64-249.44-455.2-256zM1856 512h384c35.348 0 64-28.652 64-64v-384c0-35.348-28.652-64-64-64h-384c-35.348 0-64 28.652-64 64v384c0 35.348 28.652 64 64 64zM1024 64c0-35.348 28.652-64 64-64h384c35.348 0 64 28.652 64 64v384c-0.148 16.056-6.188 30.676-16.060 41.828-164.1-65.028-328.74-141.348-495.94-190.468zM704-256h-448v-512h512v448c0 35.348-28.652 64-64 64zM3008-256h-384c-35.348 0-64-28.652-64-64v-448h512v448c0 35.348-28.652 64-64 64zM3328-320v-448h512v512h-448c-35.348 0-64-28.652-64-64zM2240-256h-384c-35.348 0-64-28.652-64-64v-448h512v448c0 35.348-28.652 64-64 64zM1472-256h-384c-35.348 0-64-28.652-64-64v-448h512v448c0 35.348-28.652 64-64 64zM2041.92 808c-338.080 0-668.64-221.6-1014.4-273.28-472.48-70.72-778.4 567.52-758.72 832 16.8 226.72 106.24 510.24 544.8 724.96 449.12 196.32 785.12 196.32 1228.32 196.32h12.16c443.2 0 779.2 0 1228.16-196 438.56-214.88 528-498.24 544.8-724.96 19.68-265.12-286.24-903.36-758.72-832-345.76 51.68-688 273.28-1026.4 273.28z" />
<glyph unicode="&#xe911;" glyph-name="333mbf" d="M624 2246.4c189.956 97.068 410.376 170.772 642.624 209.516l13.376 360.084h-1024v-852.48c103.832 112.796 225.42 207.232 360.716 279.336zM3840 1963.52v852.48h-1024v-358.24c245.624-40.588 466.044-114.292 669.032-217.364 129.544-69.644 251.136-164.080 354.1-275.924zM2026.080 2496h43.84c174.56 0 334.4 0 490.080-10.24v330.24h-1024v-330.24c155.68 10.24 315.68 10.24 490.080 10.24zM2026.080 610.88c-139.36 0-277.6-36.8-416-86.88 15.8-7.548 34.34-11.968 53.908-12h768.012c19.524 0.056 38.008 4.476 54.536 12.332-139.176 49.748-277.416 86.548-416.776 86.548zM1152 256h-896v-1024h1024v896c0 70.692-57.308 128-128 128zM2816 128v-896h1024v1024h-896c-70.692 0-128-57.308-128-128zM2432 256h-768c-70.692 0-128-57.308-128-128v-896h1024v896c0 70.692-57.308 128-128 128zM3827.040 1367.36c-16.8 226.72-106.24 510.24-544.8 724.96-448.96 195.68-784.96 195.68-1228.16 195.68h-12.16c-443.2 0-779.2 0-1228.16-196-438.56-214.88-528-498.24-544.8-724.96-19.68-265.12 286.24-903.36 758.72-832 345.76 51.68 676.16 273.28 1014.4 273.28s680.64-221.6 1026.4-273.28c472.32-71.040 778.24 567.2 758.56 832.32zM1870.88 1208.64l-106.24-106.24-203.2 202.88-202.88-203.040-99.36 99.36 202.88 203.2-203.040 203.040 106.24 106.24 202.72-203.040 203.040 203.040 99.52-99.52-203.040-203.040zM2761.28 1033.76h-205.76l-240 534.24-49.44 115.2v-650.24h-154.080v896h208l244.48-536.96 43.2-104.96v643.040h153.6z" />
<glyph unicode="&#xe912;" glyph-name="magic" d="M3519.24 1951.26l576.772-576.772-575.304-575.304-576.772 576.772 575.304 575.304zM2047.264 1952.112l576.32-576.32-575.64-575.64-576.32 576.32 575.64 575.64zM575.316 1951.836l576.32-576.32-575.304-575.304-576.32 576.32 575.304 575.304zM2783.308 1216.1l576.772-576.772-575.64-575.64-576.772 576.772 575.64 575.64zM1311.248 1215.932l576.772-576.772-575.304-575.304-576.772 576.772 575.304 575.304zM2783.212 2687.932l576.772-576.772-575.304-575.304-576.772 576.772 575.304 575.304zM1311.148 2687.996l576.772-576.772-575.304-575.304-576.772 576.772 575.304 575.304zM2047.248 480.032l576.772-576.772-575.304-575.304-576.772 576.772 575.304 575.304z" />
<glyph unicode="&#xe913;" glyph-name="mmagic" d="M3118.628 1873.472l442.592-442.592-442.592-442.592-442.592 442.592 442.592 442.592zM2583.428 2408.596l442.592-442.592-442.592-442.592-442.592 442.592 442.592 442.592zM1512.94 2408.684l442.592-442.592-442.592-442.592-442.592 442.592 442.592 442.592zM2583.34 1338.272l442.592-442.592-442.592-442.592-442.592 442.592 442.592 442.592zM2048.14 1873.396l442.592-442.592-442.592-442.592-442.592 442.592 442.592 442.592zM977.812 1873.484l442.592-442.592-442.592-442.592-442.592 442.592 442.592 442.592zM2048.212 803.072l442.592-442.592-442.592-442.592-442.592 442.592 442.592 442.592zM1513.012 1338.356l442.592-442.592-442.592-442.592-442.592 442.592 442.592 442.592zM3118.54 802.984l442.592-442.592-442.592-442.592-442.592 442.592 442.592 442.592zM3653.828 1338.184l442.592-442.592-442.592-442.592-442.592 442.592 442.592 442.592zM977.728 803.156l442.592-442.592-442.592-442.592-442.592 442.592 442.592 442.592zM442.528 1338.284l442.592-442.592-442.592-442.592-442.592 442.592 442.592 442.592z" />
<glyph unicode="&#xe914;" glyph-name="stack" d="M2707.2 1024h-1318.4l182.4 1728h953.6l182.4-1728zM3366.4-704h-1318.4l182.4 1728h953.6l182.4-1728zM2048-704h-1318.4l182.4 1728h953.6l182.4-1728z" />
<glyph unicode="&#xe915;" glyph-name="registration" d="M3094.88 2738.72h681.12v-681.12h-681.12v681.12zM3094.88-26.4h681.12v-681.12h-681.12v681.12zM329.92-23.52v-684h684v473.28l-91.36 210.56zM3094.88 1816.96h681.12v-681.12h-681.12v681.12zM3094.88 895.36h681.12v-681.12h-681.12v681.12zM1812.64-302.88h-560v-404.64h681.12v681.12h-32zM2173.76-24.96h681.12v-681.12h-681.12v681.12zM612.96 486.88v202.4l-160 369.44-122.88-41.92v-813.12h493.76l-123.040 283.2zM329.76 1016.8v0l122.88 41.92zM612.96 689.28v0zM700.8 486.88v0l123.040-283.36zM612.96 1757.12v698.24h1240l35.040 113.6 52.96 169.76h-1611.2v-1070.24l174.4 54.56zM504.16 1723.040l-174.4-54.56zM1853.12 2455.36l34.88 113.6-35.36-113.44zM2704.48 2446.72l-123.040-379.040v-1580.8h-512.64l-44.16-136-47.68-147.2h887.84v2535.040h-65.6l-94.72-292zM1976.96 203.68v0 0zM2704.48 2446.72v0zM1504 676.96l715.68 2299.040h446.080l-1003.84-3095.040h-490.72l-616.64 1373.92-332.48-102.88-128 262.72 721.92 227.040 405.6-944q97.28-235.68 162.24-417.12h8.16q40.64 152.8 112 396.32z" />
<glyph unicode="&#xe916;" glyph-name="intro" d="M256 777.6h3476.64v-1490.72h-3476.64v1490.72zM374.56 2253.6l41.44-11.040 705.6 407.36-415.36 111.2-231.36-133.6-100.32-373.92zM835.84 2130.080l415.36-111.36 705.6 407.36-415.36 111.36-705.6-407.36zM1666.56 1907.52l415.36-111.36 705.44 407.36-415.36 111.36-705.44-407.36zM2912.48 1573.6l705.6 407.36-415.36 111.36-705.6-407.36 415.36-111.36zM3732.8 1353.92l107.2 400.32-507.52-293.12 400.32-107.2zM256 1353.6h42.88l576-576h-429.92l-188.96 188.96v387.040zM733.6 1353.6h429.92l576-576h-429.92l-576 576zM1593.44 1353.6h430.080l576-576h-429.92l-576.16 576zM2883.36 1353.6l576.16-576h-430.080l-576 576h429.92zM3732.48 1353.6v-414.4l-414.4 414.4h414.4z" />
<glyph unicode="&#xe917;" glyph-name="break" d="M662.88 2662.080c-52.908-86.144-84.248-190.472-84.248-302.124 0-72.716 13.292-142.328 37.584-206.536 23.308-59.984 66.828-113.904 89.228-178.544 13.404-38.212 21.148-82.268 21.148-128.132 0-22.552-1.872-44.668-5.472-66.2-8.788-58.896-29.28-113.896-59.012-162.64-53.944-85.428 84.456-165.908 139.176-78.068 52.916 86.104 84.264 190.396 84.264 302.012 0 72.7-13.3 142.292-37.596 206.48-23.308 59.988-66.828 113.908-89.228 178.548-13.4 38.22-21.14 82.284-21.14 128.16 0 22.544 1.868 44.648 5.46 66.172 8.78 58.952 29.272 114.008 59.016 162.804 53.944 85.424-84.456 165.904-139.176 78.064zM1613.44 2662.080c-52.908-86.144-84.248-190.472-84.248-302.124 0-72.716 13.292-142.328 37.584-206.536 23.308-59.984 66.828-113.904 89.228-178.544 13.404-38.212 21.148-82.268 21.148-128.132 0-22.552-1.872-44.668-5.472-66.2-8.788-58.896-29.28-113.896-59.012-162.64-53.944-85.428 84.456-165.908 139.176-78.068 52.916 86.104 84.264 190.396 84.264 302.012 0 72.7-13.3 142.292-37.596 206.48-23.308 59.988-66.828 113.908-89.228 178.548-13.4 38.22-21.14 82.284-21.14 128.16 0 22.544 1.868 44.648 5.46 66.172 8.78 58.952 29.272 114.008 59.016 162.804 53.944 85.424-84.456 165.904-139.176 78.064zM2563.84 2662.080c-52.908-86.144-84.248-190.472-84.248-302.124 0-72.716 13.292-142.328 37.584-206.536 23.308-59.984 66.828-113.904 89.228-178.544 13.404-38.212 21.148-82.268 21.148-128.132 0-22.552-1.872-44.668-5.472-66.2-8.788-58.896-29.28-113.896-59.012-162.64-53.944-85.428 84.456-165.908 139.176-78.068 52.916 86.104 84.264 190.396 84.264 302.012 0 72.7-13.3 142.292-37.596 206.48-23.308 59.988-66.828 113.908-89.228 178.548-13.4 38.22-21.14 82.284-21.14 128.16 0 22.544 1.868 44.648 5.46 66.172 8.78 58.952 29.272 114.008 59.016 162.804 53.944 85.424-84.456 165.904-139.176 78.064zM3237.12 1117.28v128h-3109.12v-197.28c0-66.4 3.68-131.68 10.080-196h3088c0 5.6 1.44 11.2 1.92 16 165.6-7.36 445.92-51.2 408.32-266.88s-392.8-341.12-595.52-395.68c77.376 150.748 136.12 325.668 167.012 510.032l-3053.412 10.608c78.72-472.48 327.68-868.96 664.96-1090.080h-336c0-116.112 94.128-210.24 210.24-210.24h1977.6c116.112 0 210.24 94.128 210.24 210.24h-336c101.236 67.256 188.82 143.452 265.544 229.54l1.176-1.060s1068.8 224 1152 769.6c64.32 435.52-496.8 482.24-727.040 483.2z" />
<glyph unicode="&#xe918;" glyph-name="lunch" d="M3184 1024c0-586.484-475.436-1061.92-1061.92-1061.92s-1061.92 475.436-1061.92 1061.92c0 586.484 475.436 1061.92 1061.92 1061.92s1061.92-475.436 1061.92-1061.92zM609.92 2544c-37.152 18.428-80.852 29.368-127.068 29.76-46.424-0.416-90.064-11.356-128.912-30.536-223.38-111.224-275.7-519.544-181.14-703.224 8.32-16 41.92-77.28 88.16-171.68 30.72-62.56 46.080-93.92 61.92-133.44 25.608-61.996 47.124-134.952 61.032-210.572 51.928-276.148 25.528-626.868 28.888-626.868v0c-17.6-188.16-64.8-753.6-34.4-1081.12 8.48-91.84 38.080-121.92 60.48-133.76 11.348-5.832 24.756-9.248 38.968-9.248 1.656 0 3.304 0.048 4.94 0.14 1.18-0.092 2.828-0.14 4.484-0.14 14.208 0 27.62 3.416 39.456 9.476 21.912 11.612 51.512 41.532 59.992 133.532 30.4 327.52-16.8 892.96-34.4 1081.12v0c3.52 0-23.040 350.72 27.84 620 14.956 82.488 36.472 155.444 64.772 224.916 13.308 32.044 29.308 63.404 59.228 125.964 46.72 94.72 79.84 155.68 88.64 171.68 94.56 183.68 42.24 592-182.88 704zM419.2 761.12v0zM547.2 761.12v0zM3952-526.24h-166.72l34.080 3100.48h98.72l33.92-3100.48zM3674.080-526.24h-166.72l34.080 3100.48h98.72l33.92-3100.48z" />
<glyph unicode="&#xe919;" glyph-name="ceremony" d="M834.56 2008.48l905.76-1568.8h615.36l-1213.44 2101.92-307.68-533.12zM2953.76 2541.6l-855.68-1481.92 307.84-533.12 855.52 1481.92-307.68 533.12zM1242.56 2541.44l307.68-532.96h995.52l307.68 533.12-1610.88-0.16zM2472.64-68.8c0-234.524-190.116-424.64-424.64-424.64s-424.64 190.116-424.64 424.64c0 234.524 190.116 424.64 424.64 424.64s424.64-190.116 424.64-424.64zM0 2039.040l853.76-1478.72h580.16l-1143.84 1981.28-290.080-502.56zM1544.16 80.96c0-221.092-179.228-400.32-400.32-400.32s-400.32 179.228-400.32 400.32c0 221.092 179.228 400.32 400.32 400.32s400.32-179.228 400.32-400.32zM964.8 2541.44h-580.16l290.080-502.4 290.080 502.4zM3805.92 2541.6l-806.4-1396.96 289.92-502.4 806.56 1396.8-290.080 502.56zM3352.48 80.96c0-221.092-179.228-400.32-400.32-400.32s-400.32 179.228-400.32 400.32c0 221.092 179.228 400.32 400.32 400.32s400.32-179.228 400.32-400.32zM2662.080 560.32h580.16l-290.080 502.4-290.080-502.4zM3711.36 2541.44h-580.16l290.080-502.4 290.080 502.4z" />
<glyph unicode="&#xe91a;" glyph-name="lucky" d="M256 1678.080v-732.8h181.6v-1628.8h3221.28v1628.8h181.12v732.8zM2237.6-272.96h-444.16v391.84h444.16zM2599.84 717.92q-51.36-86.24-209.44-210.56-110.24-87.36-139.2-140.16c-18.424-36.816-29.208-80.208-29.208-126.12 0-4.208 0.092-8.392 0.268-12.556l-414.26 0.596v41.44c-0.16 4.804-0.252 10.452-0.252 16.124 0 55.632 8.872 109.188 25.28 159.336 16.224 42.888 40.468 82.936 70.856 117.44q47.636 54.14 212.916 191.58 88.32 72 88.32 132c0.132 2.128 0.208 4.612 0.208 7.116 0 33.656-13.656 64.124-35.728 86.16q-35.52 33.28-107.52 33.28c-1.536 0.048-3.34 0.076-5.152 0.076-48.048 0-91.516-19.608-122.836-51.26q-50.736-51.376-64.976-179.056l-423.36 52.32q21.76 233.44 169.76 376t453.44 142.4q237.92 0 384-99.36 198.24-134.72 198.24-357.92c-0.468-66.272-19.524-127.996-52.208-180.336zM654.72 1860.96h1268.96l-918.24 870.56-350.72-870.56zM3441.28 1860.96h-1269.12l918.4 870.56 350.72-870.56zM3010.4 2731.52l-838.24-788 634.56 788h203.68zM1085.6 2731.52l838.080-788-634.4 788h-203.68z" />
</font>
</defs>
</svg>
